<svg xmlns="http://www.w3.org/2000/svg" xmlns:xlink="http://www.w3.org/1999/xlink" width="300" height="128">
  <defs>
    <linearGradient id="b">
      <stop offset="0" stop-color="gray"/>
      <stop offset=".5" stop-color="#c9c9c9"/>
      <stop offset="1" stop-color="gray"/>
    </linearGradient>
    <linearGradient id="a">
      <stop offset="0" stop-color="#475059"/>
      <stop offset="1" stop-color="#1e2125"/>
    </linearGradient>
    <linearGradient id="c" x1="0" x2="0" y1="1" y2="0">
      <stop offset="0" stop-color="#0000ff"/>
      <stop offset="1" stop-color="#0000ff" stop-opacity=".3"/>
    </linearGradient>
    <linearGradient xlink:href="#a" id="d" x1="0" x2="0" y1="0" y2="1"/>
    <linearGradient xlink:href="#a" id="e" x1="1" x2="0" y1="1" y2="0"/>
    <linearGradient xlink:href="#a" id="g" x1="-1" x2="0" y1="1" y2="0"/>
    <linearGradient xlink:href="#b" id="h" x1="0" x2="0" y1="0" y2="1"/>
  </defs>
  <path fill="#262626" stroke="#000" stroke-width=".58" d="m80.02 104.28 11.14 1.65 10.72-44.13 79.6-49.35-7.44-.58-81.66 45.2z"/>
  <path fill="#0e0e0e" stroke="#000" stroke-linejoin="round" stroke-width=".58" d="m14.81 75.6 14.87-7.88 185.04 24.06 61.26-44.8 8.6.04-69.42 56.86z"/>
  <path fill="url(#c)" d="m95 57.88 4.2.84 80.23-45.1-7-1.3z"/>
  <path fill="#262626" stroke="#000" stroke-linejoin="round" stroke-width=".58" d="m278.63 44.54.07 2.55-67.15 53.11.71-7.99"/>
  <path fill="#262626" stroke="#000" stroke-width=".58" d="m26.03 67.8.08 6.56 185.4 25.66.8-8.31"/>
  <path fill="url(#d)" stroke="#000" stroke-linejoin="round" stroke-width=".58" d="m289.97 22.34-3.28 17.31-69.99 55.1 4.44-21.34"/>
  <path fill="url(#e)" stroke="#000" stroke-linejoin="round" stroke-width=".58" d="m92.4 77.47 124.35 17.33 4.33-20-124.35-16.5z"/>
  <path fill="url(#e)" stroke="#000" stroke-linejoin="round" stroke-width=".58" d="m85.57 105.87 125.66 18 3.46-20.36-124.21-17.26z"/>
  <path stroke="#000" stroke-width=".58" d="m17.13 67.16 72.48 9.9 4.64-19.08-72.38-9.53z"/>
  <path fill="#0d0d0d" stroke="#000" stroke-linejoin="round" stroke-width=".58" d="m21.76 48.46 91.47-44.16 65.08 6.89-84.32 47.2z"/>
  <path fill="url(#g)" stroke="#000" stroke-linejoin="round" stroke-width=".58" d="m96.68 58.4 83.6-46.88 109.27 11.04-68.37 52.13z"/>
  <path fill="url(#d)" stroke="#000" stroke-linejoin="round" stroke-width=".58" d="m211.28 123.72 70.37-59.4 2.79-17.11-69.9 56.88"/>
  <path stroke="#000" stroke-width=".58" d="m14.95 75.74 73.06 10.2-4.81 19.4-72.91-11.37z"/>
  <path fill="#999" d="m28.73 59.81h-.02l-.01.03-.08.21-.13.36-.08.2v.06c0 .01.01.02.03.02h.04l.05-.04a.76.76 0 01.05-.05l.04-.02.04.02.05.05a.8.8 0 00.25.19c.1.05.24.08.41.1a1 1 0 00.74-.18c.2-.15.35-.36.42-.63.04-.14.06-.26.05-.36s-.04-.19-.1-.27a.83.83 0 00-.21-.23 1.86 1.86 0 00-.3-.18 1.73 1.73 0 01-.26-.14.76.76 0 01-.2-.19.36.36 0 01-.04-.19.8.8 0 01.03-.2.52.52 0 01.19-.26c.1-.08.23-.12.4-.1.1 0 .18.03.25.07.06.04.11.1.15.16.05.1.09.18.1.26.03.09.04.16.04.22l.01.03h.1c.02 0 .03-.02.03-.03a4.2 4.2 0 00.09-.5 3.78 3.78 0 01.04-.26c0-.01 0-.02-.02-.02a.09.09 0 00-.06.01l-.07.05a.08.08 0 01-.05.02.1.1 0 01-.05-.02 1.19 1.19 0 00-.5-.17.97.97 0 00-.66.12.98.98 0 00-.3.24 1 1 0 00-.17.3c-.03.14-.05.26-.04.36s.04.2.1.28c.07.1.16.2.26.27.1.08.19.13.26.17.2.1.33.21.4.32.08.1.1.26.04.44a.55.55 0 01-.3.36.71.71 0 01-.4.06.62.62 0 01-.28-.12.53.53 0 01-.19-.26.94.94 0 01-.03-.53h-.02zm4.72-1.54a1.73 1.73 0 00-1.35.38 1.88 1.88 0 00-.67.99c-.08.3-.09.58-.02.81.06.23.16.4.3.52a1.75 1.75 0 001.7.34 1.97 1.97 0 00.99-.78 1.77 1.77 0 00.24-1.23 1.3 1.3 0 00-1.19-1.03zm-.06.19c.14.02.27.1.4.23s.22.31.27.54c.06.23.05.5-.03.8-.03.13-.1.3-.2.49-.1.2-.26.36-.44.5a.97.97 0 01-.72.18.74.74 0 01-.38-.2c-.14-.12-.24-.3-.3-.53a1.9 1.9 0 01.72-1.86.97.97 0 01.45-.17c.11 0 .19 0 .23.02zm2.72.82h.03a26.49 26.49 0 01.53 1.07l.16.34.3.58a42.36 42.36 0 00.4.74l.08.03c.02 0 .04 0 .05-.03a.36.36 0 00.03-.08l.3-1.11a14.85 14.85 0 01.55-1.58.13.13 0 01.11-.04l.12.01h.03l.01-.04.03-.1v-.01l-.04-.02a4.91 4.91 0 00-.41-.04 8.05 8.05 0 01-.5-.07l-.02.02-.02.1v.03l.01.01.14.02c.05 0 .1.03.13.06s.05.08.05.13l-.05.3a48.97 48.97 0 01-.29 1.14l-.12.44h-.02a172.02 172.02 0 00-1.19-2.44.15.15 0 00-.06-.01 1.28 1.28 0 00-.12-.01l-.19-.02a25.99 25.99 0 01-.54-.06l-.03.11c0 .02 0 .03.02.03l.14.02c.1.02.16.07.2.16.04.1.04.2 0 .33l-.14.54a34.25 34.25 0 01-.4 1.33.8.8 0 01-.14.27.16.16 0 01-.15.06l-.14-.02h-.02l-.02.02-.02.1v.04h.01a17.6 17.6 0 00.45.05 9.31 9.31 0 01.48.08l.02-.03.02-.1v-.02s0-.02-.02-.02l-.11-.01c-.08-.01-.12-.05-.14-.1s-.01-.14.01-.24a19.67 19.67 0 01.35-1.45zm4.5 1.77a19.83 19.83 0 011-1 8 8 0 01.34-.3.37.37 0 01.25-.07l.1.01h.03l.01-.04.03-.1v-.02h-.03l-.12-.02a5.32 5.32 0 01-.8-.11c-.02 0-.03 0-.04.02l-.03.1v.03l.03.02.11.01c.06.01.1.03.11.06v.11c-.03.04-.1.14-.25.3a25.73 25.73 0 01-.8.82 17.67 17.67 0 00-.23-1 2.1 2.1 0 01-.06-.33.2.2 0 01.05-.09c.03-.02.06-.02.1-.01l.12.01h.03l.01-.04.03-.1v-.02h-.03l-.17-.02a13.4 13.4 0 01-1.05-.14v.01l-.04.12v.02l.03.01.07.01c.04 0 .07.02.1.04l.09.08a45.63 45.63 0 01.47 1.6l-.06.2a30.54 30.54 0 01-.23.8.12.12 0 01-.05.06c-.03.02-.07.02-.12.02l-.18-.03-.02.01-.02.02-.02.1v.03l.01.01.16.02a12.04 12.04 0 011.04.14c.02 0 .03 0 .04-.04l.02-.1v-.02h-.02l-.14-.03a.19.19 0 01-.1-.03c-.03-.02-.03-.07-.02-.13a5.56 5.56 0 01.12-.49z"/>
  <path fill="none" stroke="#000" stroke-width=".58" d="m143.65 85.78-.2 4.54 10.09 1.58.2-4.85z"/>
  <path fill="none" stroke="#000" stroke-width=".6" d="m126.43 83.23-.2 4.74 10.08 1.66.06-4.92z"/>
  <path stroke="#000" stroke-width=".58" d="m33.72 70.5-.15 3.2 87.2 12.69.44-4.09z"/>
  <path stroke="#262626" stroke-width=".53" d="m127 83.6-.18 4.19 8.9 1.46.05-4.34z"/>
  <path stroke="#262626" stroke-width=".49" d="m144.4 86.25-.17 3.84 8.54 1.34.18-4.1z"/>
  <path fill="url(#h)" stroke="#000" stroke-linecap="square" stroke-linejoin="bevel" stroke-width=".05" d="m95 59 1.23.26-3.44 16.17-1.23-.26zm-6.5 28 1.23.26-3.94 16.17-1.23-.26z"/>
  <path d="m184.26 83.2-1.22-.16v-1.64c0-1.08.68-1.54 2.04-1.36l4.48.6c.54.07.82-.16.82-.7 0-.55-.28-.86-.82-.93l-6.52-.87v-.81l6.52.86c1.36.18 2.04.82 2.04 1.9 0 1.1-.68 1.55-2.04 1.36l-4.48-.59c-.55-.07-.82.16-.82.7zm6.39.84v-.81l3.26.43c.54.07.81-.16.81-.7v-2.46c0-1.09.68-1.54 2.04-1.36l3.26.43v.82l-3.26-.44c-.54-.07-.81.17-.81.71v2.45c0 1.08-.68 1.54-2.04 1.36zm10.35-.26 4.6.61v-2.44c0-.21-.06-.3-.17-.27l-3.1 1.47zm-1.34.64c-.93-.12-.72-.5.64-1.14l2.03-.95 3.67-1.8c.18-.08.31-.12.41-.1.27.03.4.19.4.46v3.67l.42.05v.81l-.41-.05v.82l-1.23-.17v-.81z"/>
</svg>
